<?xml version="1.0" encoding="UTF-8"?>
<svg id="Layer_2" data-name="Layer 2" xmlns="http://www.w3.org/2000/svg" viewBox="0 0 732.98 540">
  <defs>
    <style>
      .cls-1 {
        fill: #fff;
      }

      .cls-1, .cls-2 {
        stroke-width: 0px;
      }

      .cls-2 {
        fill: #ff3495;
      }
    </style>
  </defs>
  <g id="Logo">
    <g>
      <rect class="cls-2" y="130.91" width="109.83" height="109.83"/>
      <path class="cls-1" d="m427.39,430.17h298.37v109.83h-298.37v-109.83Zm134.49-250.67c33.85,0,61.27,27.42,61.27,61.27s-27.42,61.27-61.27,61.27h-134.49v109.83h134.49c72.76,0,135.07-45.65,159.75-109.83,7.34-19.04,11.35-39.69,11.35-61.27,0-94.34-76.75-171.1-171.1-171.1s-171.1,76.75-171.1,171.1h109.83c0-33.85,27.42-61.27,61.27-61.27Z"/>
      <path class="cls-1" d="m237.99,430.17h171.1v109.83h-109.83c-94.49,0-171.1-76.61-171.1-171.1V0h109.83v130.94h128.14v109.83h-128.14v189.4Z"/>
    </g>
  </g>
</svg>